<svg xmlns="http://www.w3.org/2000/svg" viewBox="0 0 64 64"><rect width="64" height="64" rx="10" fill="#1d1e1c"/><g transform="translate(9.6 6.6) scale(0.0598)" fill="#e4d19e"><g transform="translate(-164 -124)"><path d="M164.37,539.54a4.37,4.37,0,0,1,5.29-4.25c18.7,4.06,33.16,20.84,41.38,38.55,9,19.36,12.84,40.8,22.16,60,7.92,16.3,79.82,68.39,96.08,83.48,15.24,14.15,61.19,34.59,71.36,52.74,3.59,6.41-24.82,31-31,43.44-2.53,5.07-27.68,32.67-31,37.23-12.38,16.88-50.95,41.89-59.14,61.57-6.64,16-10.53,33.82-22.31,46.5H168.88a4.51,4.51,0,0,1-4.51-4.5Z"/><path d="M315.44,949.82c2.91-16.65,15.26-30,28.37-40.71s27.7-20,38.12-33.27c10.16-13,15.91-29.31,27.78-40.73a8,8,0,0,1,4.3-2.57c2.65-.34,4.93,1.72,6.78,3.64a437.07,437.07,0,0,1,57.35,74.08c2.51,4.07,5,8.29,5.94,13,2,9.81-3.05,19.57-4.42,29.49a7,7,0,0,1-6.89,6H322.39a7,7,0,0,1-6.95-7Z"/><path d="M282.72,337.73c9.5-3,19.09-6.52,29-5.92,9.4.57,18.29,4.29,27,8l196.16,82.89c3.6,1.52,7.42,3.23,9.5,6.54s1.93,7.27,1.81,11.06q-1.05,32.7-.68,65.42c.2,18.44,1.1,38,11.51,53.26,6.39,9.34,15.79,16.13,23.57,24.34s14.24,19.13,12.39,30.29c-1,6-4.29,11.34-8,16.17-8,10.52-18,19.29-28.14,27.81-26.24,22.15-53.39,43.19-80.52,64.23-12.32,9.54-26.36,19.61-41.86,18-11.06-1.16-20.52-8.16-29.34-14.94q-67.63-52-132.83-107.07c-8.59-7.26-17.3-14.72-23.22-24.28-7.4-11.92-9.89-26.12-13.32-39.73a270.48,270.48,0,0,0-50.3-101.66,21.47,21.47,0,0,1,1.74-28.54C214,396.9,270.6,341.53,282.72,337.73Z"/><path d="M481.8,167.39a11.33,11.33,0,0,1,15.81,1.19C513.93,187,525.81,209.2,537.45,231c11.51,21.6,23.28,44.07,24.79,68.5.9,14.56-1.91,29.06-4.7,43.38l-8.88,45.4a7.72,7.72,0,0,1-.79,2.28c-1.59,2.79-3.9,2.16-5.91,1.53-66.52-21-150.2-57.63-215.46-85.83a4.16,4.16,0,0,1-1-7Z"/><path d="M550.6,125.65c10,7.23,20.06,14.52,30.09,21.78,6.67,4.83,13.74,10.19,16.17,18,2.26,7.26,0,15.06-2.15,22.34L576.6,247.75a3.39,3.39,0,0,1-6.4.24c-12.44-32.12-35.48-67.09-60-90.56a6.52,6.52,0,0,1-.29-9.11C518.9,138.48,539.75,117.85,550.6,125.65Z"/><path d="M831.66,400.38,636.93,584c-3.67,3.46-7.7,7.1-12.71,7.75-6.62.85-12.58-3.73-17.68-8l-23.16-19.56c-5.75-4.86-11.65-9.9-15.15-16.57-4.56-8.69-4.47-19-4.26-28.8,1.24-56.87,3.21-114.17,16.19-169.55,5.43-23.14,12.73-45.77,20-68.38l26-80.46a6.14,6.14,0,0,1,10-2.62l200,185.35a9.67,9.67,0,0,1-1.3,15.19Z"/><path d="M893.22,781.43a756.42,756.42,0,0,1-108,94.23c-7.61,5.46-15.66,10.93-24.9,12.46-18.43,3.07-35.28-10-49.4-22.17-51.44-44.53-104.82-93-124.37-158.17-1.66-5.54-3.07-11.41-1.84-17.06,1.08-4.92,4.06-9.2,7.08-13.24,24-32.15,54.51-58.82,84.75-85.22,29-25.33,58-50.67,87.71-75.22,35.27-29.17,56.54-67.88,85.1-104.27a9.51,9.51,0,0,1,14.1-1l49.11,47.45V764.81Z"/><path d="M754.9,958.79a4.39,4.39,0,0,1-4.36-4.73c1.63-20.36,18.81-37.15,36.71-48,19.26-11.64,41.25-20,56.24-36.74,4.25-4.76,8.3-10.43,14.47-12.1,3.11-.83,6.41-.52,9.61-.17q18.87,2.05,37.54,5.47a9.11,9.11,0,0,1,7.47,9v77.77a9.51,9.51,0,0,1-9.51,9.51Z"/><path d="M558.69,726.16c41.79,57.3,81.94,118.09,140.56,158,7.82,5.33,16.14,10.49,21.5,18.29s6.88,19.21.73,26.4c-2.68,3.13-6.66,5.39-7.92,9.31-.87,2.72-.47,6.24-2.83,7.87-1.64,1.12-3.84.71-5.78.25L546.11,908.52c-8.1-1.92-16.41-3.94-23.26-8.68-4.45-3.09-8.09-7.19-11.68-11.25l-68.87-78c-1-1.18-2.15-2.51-2.15-4.09,0-1.93,1.62-3.42,3.11-4.64l103.2-84.91S551.07,715.71,558.69,726.16Z"/><path d="M511.44,958.13a3.86,3.86,0,0,1-3.53-5.36l12.55-29.7a5.94,5.94,0,0,1,1.65-2.55c1.76-1.34,4.27-.37,6.25.63a526.57,526.57,0,0,0,87,34.41,1.65,1.65,0,0,1-.48,3.23Z"/></g></g></svg>